{"glyphs":{":":{"x_min":0,"x_max":294,"ha":294,"o":"m 194 433 q 194 413 180 400 q 167 386 147 386 q 127 386 114 400 q 100 413 100 433 q 100 453 114 466 q 127 480 147 480 q 167 480 180 466 q 194 453 194 433 z m 194 108 q 194 88 180 74 q 167 61 147 61 q 127 61 114 74 q 100 88 100 108 q 100 128 114 142 q 127 155 147 155 q 167 155 180 142 q 194 128 194 108 z"},"$":{"x_min":0,"x_max":553,"ha":553,"o":"m 310 69 q 332 75 352 87 q 373 99 388 116 q 404 133 413 154 q 422 175 422 200 q 422 225 413 244 q 404 263 389 278 q 374 293 354 304 q 333 316 310 327 z m 250 685 q 227 679 208 666 q 188 654 174 636 q 159 618 151 596 q 143 574 143 550 q 143 527 152 509 q 160 491 174 476 q 188 462 208 450 q 227 438 250 428 z m 310 840 l 310 758 q 358 752 399 725 q 440 698 464 656 l 398 627 q 383 650 360 666 q 337 681 310 686 l 310 403 q 344 389 376 373 q 409 357 435 334 q 461 310 477 278 q 493 246 493 200 q 493 160 478 126 q 463 92 438 66 q 413 39 380 21 q 347 3 310 -5 l 310 -90 l 250 -90 l 250 -10 q 217 -9 185 1 q 153 11 125 29 q 97 47 75 72 q 53 97 40 128 l 105 156 q 114 135 129 118 q 144 101 164 89 q 183 77 206 70 q 228 62 250 61 l 250 352 q 217 366 185 382 q 153 398 128 420 q 103 443 88 474 q 72 506 72 550 q 72 589 86 624 q 99 659 123 686 q 147 714 180 732 q 212 751 250 757 l 250 840 z"},"?":{"x_min":0,"x_max":461,"ha":461,"o":"m 184 37 q 184 57 198 70 q 211 84 231 84 q 251 84 264 70 q 278 57 278 37 q 278 17 264 4 q 251 -10 231 -10 q 211 -10 198 4 q 184 17 184 37 z m 266 173 l 196 173 l 196 429 q 228 429 258 435 q 287 441 310 456 q 333 471 347 496 q 361 521 361 559 q 361 586 350 610 q 340 634 322 652 q 305 669 282 680 q 258 690 231 690 q 204 690 180 680 q 157 669 139 652 q 121 634 110 610 q 100 586 100 559 l 30 559 q 30 601 46 638 q 62 674 89 701 q 116 728 152 744 q 189 760 231 760 q 272 760 308 744 q 345 728 372 701 q 399 674 415 638 q 431 601 431 559 q 431 523 418 490 q 406 457 384 430 q 362 404 332 386 q 301 368 266 362 z"},"<":{"x_min":0,"x_max":535,"ha":535,"o":"m 484 409 l 143 242 l 485 61 l 452 -1 l 50 212 l 50 275 l 453 471 z"},"'":{"x_min":0,"x_max":156,"ha":156,"o":"m 146 738 l 59 544 l 10 563 l 72 763 z"},"=":{"x_min":0,"x_max":535,"ha":535,"o":"m 50 350 l 485 350 l 485 290 l 50 290 z m 50 179 l 485 179 l 485 119 l 50 119 z"},"a":{"x_min":0,"x_max":600,"ha":600,"o":"m 285 -10 q 234 -10 190 10 q 145 29 112 62 q 79 95 60 140 q 40 184 40 235 q 40 286 60 330 q 79 375 112 408 q 145 441 190 460 q 234 480 285 480 q 334 480 380 461 q 426 442 460 406 l 460 470 l 530 470 l 530 0 l 460 0 l 460 64 q 426 28 380 9 q 334 -10 285 -10 z m 285 410 q 249 410 217 396 q 185 382 162 358 q 138 335 124 303 q 110 271 110 235 q 110 199 124 167 q 138 135 162 112 q 185 88 217 74 q 249 60 285 60 q 321 60 353 74 q 385 88 408 112 q 432 135 446 167 q 460 199 460 235 q 460 271 446 303 q 432 335 408 358 q 385 382 353 396 q 321 410 285 410 z"},"L":{"x_min":0,"x_max":416,"ha":416,"o":"m 154 70 l 396 70 l 396 0 l 80 0 l 80 750 l 154 750 z"},"3":{"x_min":0,"x_max":540,"ha":540,"o":"m 386 375 q 429 346 454 300 q 480 255 480 200 q 480 156 464 118 q 447 80 418 52 q 390 23 352 6 q 313 -10 270 -10 q 226 -10 188 6 q 150 23 122 52 q 93 80 76 118 q 60 156 60 200 l 130 200 q 130 171 141 146 q 152 120 171 101 q 190 82 216 71 q 241 60 270 60 q 299 60 324 71 q 350 82 369 101 q 388 120 399 146 q 410 171 410 200 q 410 229 399 254 q 388 280 369 299 q 350 318 324 329 q 299 340 270 340 l 251 340 l 251 410 l 270 410 q 299 410 324 421 q 350 432 369 451 q 388 470 399 496 q 410 521 410 550 q 410 579 399 604 q 388 630 369 649 q 350 668 324 679 q 299 690 270 690 q 241 690 216 679 q 190 668 171 649 q 152 630 141 604 q 130 579 130 550 l 60 550 q 60 593 76 632 q 93 670 122 698 q 150 727 188 744 q 226 760 270 760 q 313 760 352 744 q 390 727 418 698 q 447 670 464 632 q 480 593 480 550 q 480 495 454 450 q 429 404 386 375 z"},";":{"x_min":0,"x_max":306,"ha":306,"o":"m 194 433 q 194 413 180 400 q 167 386 147 386 q 127 386 114 400 q 100 413 100 433 q 100 453 114 466 q 127 480 147 480 q 167 480 180 466 q 194 453 194 433 z m 206 92 l 119 -102 l 70 -83 l 132 117 z"},"J":{"x_min":0,"x_max":342,"ha":342,"o":"m 122 60 q 151 60 172 80 q 192 101 192 130 l 192 750 l 262 750 l 262 130 q 262 101 251 76 q 240 50 221 31 q 202 12 176 1 q 151 -10 122 -10 q 102 -10 81 -8 q 60 -7 40 0 l 40 77 q 47 72 58 69 q 68 66 80 64 q 91 62 102 61 q 114 60 122 60 z"},"V":{"x_min":0,"x_max":679,"ha":679,"o":"m 330 0 l 10 750 l 88 750 l 340 151 l 592 750 l 669 750 l 350 0 z"},"\"":{"x_min":0,"x_max":367,"ha":367,"o":"m 230 448 l 230 736 l 307 736 l 307 448 z m 60 448 l 60 736 l 137 736 l 137 448 z"},"7":{"x_min":0,"x_max":484,"ha":484,"o":"m 360 680 l 60 680 l 60 750 l 464 750 l 163 0 l 87 0 z"},"S":{"x_min":0,"x_max":553,"ha":553,"o":"m 259 -10 q 225 -10 192 0 q 158 9 129 27 q 100 45 76 70 q 53 96 40 128 l 105 156 q 114 134 130 116 q 147 99 168 86 q 189 74 212 68 q 236 61 259 61 q 288 61 317 71 q 346 81 370 99 q 393 117 408 142 q 422 168 422 200 q 422 244 396 270 q 370 297 331 316 q 292 336 247 353 q 202 370 163 394 q 124 419 98 456 q 72 492 72 550 q 72 593 88 632 q 105 670 134 698 q 163 727 201 744 q 239 760 283 760 q 338 760 387 732 q 436 704 464 656 l 398 627 q 379 656 348 672 q 318 689 283 689 q 254 689 229 678 q 204 667 184 648 q 165 629 154 604 q 143 578 143 550 q 143 507 169 481 q 195 455 234 436 q 273 417 318 400 q 363 383 402 358 q 441 333 467 296 q 493 259 493 200 q 493 153 473 114 q 453 76 420 48 q 387 21 345 6 q 303 -10 259 -10 z"},"}":{"x_min":0,"x_max":328,"ha":328,"o":"m 207 377 q 186 391 172 411 q 157 431 148 454 q 139 477 136 502 q 132 527 132 551 l 132 736 q 132 781 112 797 q 92 813 50 813 l 50 878 l 98 878 q 124 878 144 866 q 164 854 177 835 q 190 816 196 792 q 203 769 203 746 l 203 565 q 203 538 204 514 q 205 491 212 470 q 219 450 234 434 q 250 418 278 406 l 278 348 q 250 336 234 320 q 219 303 212 283 q 205 263 204 239 q 203 215 203 189 l 203 7 q 203 -16 196 -40 q 190 -63 177 -82 q 164 -101 144 -113 q 124 -125 98 -125 l 50 -125 l 50 -60 q 92 -60 112 -44 q 132 -28 132 17 l 132 203 q 132 227 136 252 q 139 277 148 300 q 157 323 172 343 q 186 363 207 377 z"},"Z":{"x_min":0,"x_max":618,"ha":618,"o":"m 588 0 l 30 0 l 461 680 l 91 680 l 91 750 l 588 750 l 156 70 l 588 70 z"},"x":{"x_min":0,"x_max":497,"ha":497,"o":"m 487 470 l 294 235 l 487 0 l 396 0 l 248 180 l 101 0 l 10 0 l 203 235 l 10 470 l 101 470 l 248 290 l 396 470 z"},")":{"x_min":0,"x_max":435,"ha":435,"o":"m 90 880 q 145 880 185 853 q 225 826 253 782 q 281 738 299 683 q 317 628 328 572 q 338 516 342 464 q 345 413 345 377 q 345 340 342 289 q 338 238 328 182 q 317 126 299 71 q 281 16 253 -28 q 225 -71 184 -98 q 144 -125 90 -125 l 90 -55 q 129 -55 158 -30 q 188 -4 208 36 q 229 75 242 124 q 255 174 262 222 q 270 270 272 312 q 275 353 275 377 q 275 401 272 442 q 270 484 262 532 q 255 580 242 630 q 229 679 208 719 q 188 759 158 784 q 129 810 90 810 z"},"&":{"x_min":0,"x_max":682,"ha":682,"o":"m 569 0 l 497 78 q 415 -10 303 -10 l 273 -10 q 231 -10 192 2 q 153 14 124 38 q 95 61 78 96 q 60 130 60 175 q 60 214 72 244 q 83 275 104 300 q 124 325 153 346 q 182 366 217 385 q 182 423 157 461 q 132 499 132 546 q 132 583 146 610 q 160 638 184 657 q 208 676 240 686 q 271 695 306 695 q 337 695 368 686 q 400 678 424 660 q 449 643 464 618 q 480 592 480 558 q 480 523 466 496 q 451 468 428 446 q 404 423 374 404 q 344 386 313 370 l 491 176 q 516 219 534 264 q 553 308 570 349 l 642 349 q 631 322 620 294 q 608 267 596 240 q 583 211 569 183 q 555 155 537 126 l 652 0 z m 307 641 q 265 641 235 616 q 205 591 205 546 q 205 505 226 474 q 246 443 273 414 q 294 424 318 437 q 341 450 362 466 q 382 483 395 504 q 408 526 408 553 q 408 574 400 590 q 391 606 376 618 q 362 629 344 635 q 326 641 307 641 z m 257 340 q 231 325 208 310 q 186 295 170 276 q 154 258 145 234 q 136 211 136 179 q 136 147 148 124 q 161 100 181 84 q 201 68 228 60 q 254 52 283 52 q 310 52 332 55 q 355 58 376 66 q 396 74 415 88 q 434 102 454 124 z"},"_":{"x_min":0,"x_max":658,"ha":658,"o":"m 50 60 l 608 60 l 608 0 l 50 0 z"},"v":{"x_min":0,"x_max":470,"ha":470,"o":"m 224 0 l 10 470 l 88 470 l 237 134 l 239 134 l 383 470 l 460 470 l 250 0 z"},"O":{"x_min":0,"x_max":874,"ha":874,"o":"m 437 -10 q 357 -10 287 20 q 217 50 164 102 q 111 155 80 225 q 50 295 50 375 q 50 454 80 524 q 111 595 164 647 q 217 699 287 730 q 357 760 437 760 q 516 760 586 730 q 657 699 710 647 q 763 595 794 524 q 824 454 824 375 q 824 295 794 225 q 763 155 710 102 q 657 50 586 20 q 516 -10 437 -10 z m 437 690 q 372 690 314 665 q 256 640 213 598 q 170 555 145 498 q 120 440 120 375 q 120 310 145 252 q 170 195 214 152 q 257 109 314 84 q 372 60 437 60 q 502 60 560 84 q 617 109 660 152 q 704 195 729 252 q 754 310 754 375 q 754 440 729 498 q 704 555 660 598 q 617 640 560 665 q 502 690 437 690 z"},"(":{"x_min":0,"x_max":435,"ha":435,"o":"m 345 810 q 306 810 276 784 q 247 759 226 719 q 206 679 193 630 q 180 580 172 532 q 165 484 162 442 q 160 401 160 377 q 160 353 162 312 q 165 270 172 222 q 180 174 193 124 q 206 75 226 36 q 247 -4 276 -30 q 305 -55 345 -55 l 345 -125 q 291 -125 250 -98 q 210 -71 182 -28 q 154 16 136 71 q 118 126 108 182 q 98 238 94 289 q 90 340 90 377 q 90 414 94 465 q 98 516 108 572 q 118 628 136 683 q 154 738 182 782 q 210 826 250 853 q 290 880 345 880 z"},"C":{"x_min":0,"x_max":751,"ha":751,"o":"m 711 106 q 657 49 584 20 q 512 -10 435 -10 q 355 -10 285 20 q 215 51 163 103 q 111 155 80 225 q 50 295 50 375 q 50 454 80 524 q 111 595 163 647 q 215 699 285 730 q 355 760 435 760 q 511 760 584 730 q 657 701 710 645 l 660 598 q 606 649 549 670 q 492 690 435 690 q 370 690 312 665 q 255 640 212 598 q 170 555 145 498 q 120 440 120 375 q 120 310 145 252 q 170 195 212 152 q 255 110 312 85 q 370 60 435 60 q 492 60 548 80 q 604 101 660 152 z"},"W":{"x_min":0,"x_max":1054,"ha":1054,"o":"m 665 0 l 527 287 l 390 0 l 370 0 l 10 750 l 88 750 l 380 141 l 488 368 l 305 750 l 383 750 l 527 449 l 672 750 l 749 750 l 566 368 l 675 141 l 967 750 l 1044 750 l 685 0 z"},"A":{"x_min":0,"x_max":759,"ha":759,"o":"m 234 305 l 525 305 l 380 609 z m 390 750 l 749 0 l 672 0 l 559 235 l 200 235 l 88 0 l 10 0 l 370 750 z"},"f":{"x_min":0,"x_max":323,"ha":323,"o":"m 271 694 q 242 694 222 674 q 201 653 201 624 l 201 470 l 313 470 l 313 400 l 201 400 l 201 0 l 131 0 l 131 400 l 60 400 l 60 470 l 131 470 l 131 624 q 131 653 142 678 q 153 704 172 723 q 191 742 216 753 q 242 764 271 764 q 295 764 313 757 l 313 680 q 296 694 271 694 z"},"Q":{"x_min":0,"x_max":874,"ha":874,"o":"m 437 60 q 488 60 536 76 q 583 91 624 121 l 526 219 l 576 269 l 676 168 q 714 211 734 264 q 754 318 754 375 q 754 440 729 498 q 704 555 660 598 q 617 640 560 665 q 502 690 437 690 q 372 690 314 665 q 256 640 213 598 q 170 555 145 498 q 120 440 120 375 q 120 310 145 252 q 170 195 213 152 q 256 109 314 84 q 372 60 437 60 z m 824 375 q 824 304 799 238 q 774 172 726 119 l 805 39 l 755 -10 l 674 71 q 623 32 562 11 q 501 -10 437 -10 q 357 -10 287 20 q 217 50 164 102 q 111 155 80 225 q 50 295 50 375 q 50 454 80 524 q 111 595 164 647 q 217 699 287 730 q 357 760 437 760 q 516 760 586 730 q 657 699 710 647 q 763 595 794 524 q 824 454 824 375 z"},"w":{"x_min":0,"x_max":730,"ha":730,"o":"m 370 470 l 503 139 l 505 139 l 642 470 l 720 470 l 516 0 l 487 0 l 365 307 l 363 307 l 241 0 l 212 0 l 10 470 l 87 470 l 224 139 l 226 139 l 358 470 z"},"-":{"x_min":0,"x_max":658,"ha":658,"o":"m 50 410 l 608 410 l 608 350 l 50 350 z"},"E":{"x_min":0,"x_max":512,"ha":512,"o":"m 153 680 l 153 470 l 423 470 l 423 400 l 153 400 l 153 70 l 462 70 l 462 0 l 80 0 l 80 750 l 462 750 l 462 680 z"},"s":{"x_min":0,"x_max":393,"ha":393,"o":"m 132 340 q 132 318 148 304 q 165 291 190 280 q 214 269 242 258 q 271 248 296 232 q 320 216 336 192 q 353 167 353 130 q 353 99 340 74 q 327 48 306 30 q 284 11 256 0 q 228 -10 199 -10 q 175 -10 152 -3 q 128 4 108 18 q 87 31 72 50 q 57 70 50 94 l 115 122 q 117 108 125 96 q 133 85 145 77 q 157 69 171 64 q 185 60 199 60 q 214 60 229 65 q 244 70 256 79 q 268 88 276 101 q 283 114 283 130 q 283 152 266 166 q 250 180 226 191 q 201 202 172 212 q 144 223 120 239 q 95 255 78 279 q 62 303 62 340 q 62 369 73 394 q 84 420 103 439 q 122 458 148 469 q 173 480 202 480 q 244 480 278 458 q 313 435 330 397 l 266 369 q 257 388 240 399 q 222 410 202 410 q 173 410 152 390 q 132 369 132 340 z"},">":{"x_min":0,"x_max":535,"ha":535,"o":"m 484 212 l 83 -1 l 50 61 l 391 242 l 51 409 l 82 471 l 484 275 z"},"l":{"x_min":0,"x_max":210,"ha":210,"o":"m 70 750 l 140 750 l 140 0 l 70 0 z"},"8":{"x_min":0,"x_max":559,"ha":559,"o":"m 499 210 q 499 165 483 126 q 467 86 435 54 q 403 22 364 6 q 324 -10 280 -10 q 235 -10 196 6 q 156 22 124 54 q 92 86 76 126 q 60 165 60 210 q 60 254 76 294 q 93 333 124 365 q 133 374 143 382 q 153 389 164 396 q 126 424 102 466 q 79 509 79 560 q 79 600 94 636 q 109 672 138 701 q 197 760 280 760 q 321 760 358 744 q 394 728 421 701 q 448 674 464 638 q 480 601 480 560 q 480 509 457 466 q 434 424 396 396 q 418 382 435 365 q 466 333 482 294 q 499 254 499 210 z m 410 560 q 410 587 400 610 q 390 634 372 652 q 354 670 330 680 q 307 690 280 690 q 225 690 187 652 q 168 633 158 610 q 149 586 149 560 q 149 533 159 509 q 169 485 186 468 q 204 450 228 440 q 251 429 278 429 l 280 429 l 281 429 q 308 429 332 440 q 355 450 372 468 q 390 485 400 509 q 410 533 410 560 z m 429 210 q 429 241 418 268 q 406 295 386 315 q 366 335 339 347 q 312 359 281 359 l 280 359 l 278 359 q 247 359 220 347 q 193 335 173 315 q 153 295 142 268 q 130 241 130 210 q 130 179 142 152 q 154 124 174 104 q 194 84 222 72 q 249 60 280 60 q 311 60 338 72 q 365 84 385 104 q 405 124 417 152 q 429 179 429 210 z"},"\\":{"x_min":0,"x_max":611,"ha":611,"o":"m 20 760 l 80 760 l 591 -10 l 531 -10 z"},"e":{"x_min":0,"x_max":570,"ha":570,"o":"m 445 164 l 509 136 q 495 103 472 76 q 448 49 418 30 q 389 11 355 0 q 321 -10 285 -10 q 234 -10 190 10 q 145 29 112 62 q 79 95 60 140 q 40 184 40 235 q 40 286 60 330 q 79 375 112 408 q 145 441 190 460 q 234 480 285 480 q 336 480 380 460 q 425 441 458 408 q 491 375 510 330 q 530 286 530 235 l 110 235 q 110 199 124 167 q 138 135 162 112 q 185 88 217 74 q 249 60 285 60 q 337 60 381 88 q 425 117 445 165 z m 285 410 q 233 410 189 382 q 145 353 125 305 l 445 305 q 425 353 381 382 q 337 410 285 410 z"},"b":{"x_min":0,"x_max":600,"ha":600,"o":"m 315 -10 q 266 -10 220 9 q 174 28 140 64 l 140 0 l 70 0 l 70 750 l 140 750 l 140 406 q 174 442 220 461 q 266 480 315 480 q 366 480 410 460 q 455 441 488 408 q 521 375 540 330 q 560 286 560 235 q 560 184 540 140 q 521 95 488 62 q 455 29 410 10 q 366 -10 315 -10 z m 315 410 q 279 410 247 396 q 215 382 192 358 q 168 335 154 303 q 140 271 140 235 q 140 199 154 167 q 168 135 192 112 q 215 88 247 74 q 279 60 315 60 q 351 60 383 74 q 415 88 438 112 q 462 135 476 167 q 490 199 490 235 q 490 271 476 303 q 462 335 438 358 q 415 382 383 396 q 351 410 315 410 z"},"%":{"x_min":0,"x_max":679,"ha":679,"o":"m 60 0 l 143 0 l 618 750 l 535 750 z m 472 -10 q 442 -10 415 2 q 388 13 368 33 q 347 53 336 80 q 324 107 324 137 q 324 167 336 194 q 347 221 368 241 q 388 261 415 272 q 442 284 472 284 q 502 284 528 272 q 555 261 576 241 q 596 221 608 194 q 619 167 619 137 q 619 107 608 80 q 596 53 576 33 q 555 13 528 2 q 502 -10 472 -10 z m 472 222 q 454 222 438 216 q 423 209 412 198 q 400 186 393 170 q 386 155 386 137 q 386 119 393 104 q 400 88 412 76 q 423 65 438 58 q 454 52 472 52 q 489 52 504 58 q 520 65 532 76 q 543 88 550 104 q 557 119 557 137 q 557 155 550 170 q 543 186 532 198 q 520 209 504 216 q 489 222 472 222 z m 207 466 q 177 466 150 478 q 123 489 103 509 q 83 529 72 556 q 60 583 60 613 q 60 643 72 670 q 83 697 103 717 q 123 737 150 748 q 177 760 207 760 q 237 760 264 748 q 291 737 311 717 q 331 697 342 670 q 354 643 354 613 q 354 583 342 556 q 331 529 311 509 q 291 489 264 478 q 237 466 207 466 z m 207 698 q 172 698 147 673 q 122 648 122 613 q 122 578 147 553 q 172 528 207 528 q 242 528 267 553 q 292 578 292 613 q 292 648 267 673 q 242 698 207 698 z"},"m":{"x_min":0,"x_max":790,"ha":790,"o":"m 730 0 l 660 0 l 660 298 q 660 320 652 340 q 644 361 630 376 q 616 392 596 401 q 577 410 554 410 q 531 410 510 402 q 489 393 472 378 q 455 364 445 344 q 435 324 435 301 l 435 298 l 435 0 l 365 0 l 365 298 q 365 320 357 340 q 349 361 335 376 q 321 392 302 401 q 282 410 258 410 q 236 410 214 402 q 193 393 176 378 q 160 364 150 344 q 140 324 140 301 l 140 0 l 70 0 l 70 470 l 140 470 l 140 421 q 162 450 196 465 q 229 480 265 480 q 311 480 346 460 q 382 439 404 405 q 432 440 474 460 q 515 480 560 480 q 598 480 630 466 q 661 451 684 426 q 706 401 718 368 q 730 335 730 298 z"},"#":{"x_min":0,"x_max":705,"ha":705,"o":"m 487 164 l 464 0 l 389 0 l 412 164 l 243 164 l 220 0 l 145 0 l 168 164 l 60 164 l 69 227 l 177 227 l 210 459 l 102 459 l 111 522 l 218 522 l 241 686 l 316 686 l 293 522 l 462 522 l 485 686 l 560 686 l 537 522 l 645 522 l 636 459 l 528 459 l 496 227 l 603 227 l 595 164 z m 453 459 l 284 459 l 252 227 l 421 227 z"},",":{"x_min":0,"x_max":306,"ha":306,"o":"m 206 92 l 119 -102 l 70 -83 l 132 117 z"},"n":{"x_min":0,"x_max":495,"ha":495,"o":"m 435 0 l 365 0 l 365 298 q 365 320 357 340 q 349 361 335 376 q 321 392 302 401 q 282 410 258 410 q 236 410 214 402 q 193 393 176 378 q 160 364 150 344 q 140 324 140 301 l 140 0 l 70 0 l 70 470 l 140 470 l 140 421 q 162 450 196 465 q 229 480 265 480 q 303 480 334 466 q 366 451 388 426 q 411 401 423 368 q 435 335 435 298 z"},"h":{"x_min":0,"x_max":495,"ha":495,"o":"m 435 0 l 365 0 l 365 298 q 365 345 336 378 q 306 410 258 410 q 235 410 214 402 q 193 393 176 378 q 160 364 150 344 q 140 324 140 301 l 140 0 l 70 0 l 70 750 l 140 750 l 140 421 q 158 445 190 462 q 222 480 265 480 q 303 480 334 466 q 365 451 388 426 q 410 402 422 368 q 435 335 435 298 z"},"z":{"x_min":0,"x_max":517,"ha":517,"o":"m 476 64 l 476 0 l 40 0 l 40 4 l 344 405 l 82 405 l 82 470 l 477 470 l 172 64 z"},"B":{"x_min":0,"x_max":560,"ha":560,"o":"m 302 70 q 330 70 356 81 q 381 92 400 110 q 418 129 429 154 q 440 179 440 208 q 440 236 430 261 q 419 286 400 305 q 382 324 357 336 q 332 347 304 347 l 150 347 l 150 70 l 302 70 z m 150 417 l 304 417 q 360 417 390 452 q 420 488 420 542 q 420 570 409 596 q 398 621 380 640 q 361 658 336 669 q 310 680 282 680 l 150 680 z m 407 382 q 431 372 450 353 q 469 334 482 310 q 496 286 503 260 q 510 233 510 208 q 510 165 494 128 q 477 90 448 62 q 420 33 382 16 q 345 0 302 0 l 80 0 l 80 750 l 282 750 q 325 750 362 734 q 400 717 428 688 q 457 660 474 622 q 490 585 490 542 q 490 519 485 496 q 480 472 470 450 q 459 428 444 410 q 428 392 407 382 z"},"K":{"x_min":0,"x_max":585,"ha":585,"o":"m 200 375 l 575 0 l 476 0 l 150 326 l 150 0 l 80 0 l 80 750 l 150 750 l 150 424 l 476 750 l 575 750 z"},"R":{"x_min":0,"x_max":511,"ha":511,"o":"m 150 403 l 265 403 q 293 403 318 414 q 344 425 363 444 q 382 462 393 487 q 404 512 404 541 q 404 569 393 594 q 382 620 363 639 q 344 658 318 669 q 293 680 265 680 l 150 680 z m 80 0 l 80 750 l 265 750 q 308 750 346 734 q 384 717 412 688 q 441 660 458 622 q 474 584 474 541 q 474 508 464 476 q 453 445 434 418 q 414 392 388 372 q 361 353 329 343 l 501 0 l 422 0 l 256 333 l 150 333 l 150 0 z"},"T":{"x_min":0,"x_max":483,"ha":483,"o":"m 473 680 l 277 680 l 277 0 l 207 0 l 207 680 l 10 680 l 10 750 l 473 750 z"},"P":{"x_min":0,"x_max":504,"ha":504,"o":"m 150 0 l 80 0 l 80 750 l 265 750 q 308 750 346 734 q 384 717 412 688 q 441 660 458 622 q 474 584 474 541 q 474 498 458 460 q 441 422 412 394 q 384 366 346 350 q 308 333 265 333 l 150 333 z m 150 403 l 265 403 q 294 403 320 414 q 345 425 364 444 q 382 462 393 487 q 404 512 404 541 q 404 570 393 596 q 382 621 364 640 q 345 658 320 669 q 294 680 265 680 l 150 680 z"},"|":{"x_min":0,"x_max":160,"ha":160,"o":"m 110 -90 l 50 -90 l 50 840 l 110 840 z"},"t":{"x_min":0,"x_max":298,"ha":298,"o":"m 181 637 l 181 470 l 248 470 l 248 400 l 181 400 l 181 0 l 111 0 l 111 400 l 50 400 l 50 470 l 111 470 l 111 637 z"},"M":{"x_min":0,"x_max":851,"ha":851,"o":"m 771 750 l 771 0 l 701 0 l 701 556 l 425 173 l 150 556 l 150 0 l 80 0 l 80 750 l 96 750 l 425 293 l 755 750 z"},"g":{"x_min":0,"x_max":600,"ha":600,"o":"m 285 60 q 321 60 353 74 q 385 88 409 112 q 433 135 446 167 q 460 199 460 235 q 460 271 446 303 q 433 335 409 359 q 385 383 353 396 q 321 410 285 410 q 249 410 217 396 q 185 383 162 359 q 138 335 124 303 q 110 271 110 235 q 110 199 124 167 q 138 135 162 112 q 185 88 217 74 q 249 60 285 60 z m 530 0 q 530 -49 512 -94 q 493 -138 458 -173 q 423 -208 378 -226 q 334 -245 285 -245 q 236 -245 192 -226 q 147 -208 112 -173 q 79 -140 61 -99 l 125 -71 l 125 -70 q 145 -117 188 -146 q 231 -175 285 -175 q 321 -175 353 -161 q 385 -147 409 -124 q 433 -100 446 -68 q 460 -36 460 0 l 460 64 q 458 62 458 62 q 423 27 378 8 q 334 -10 285 -10 q 236 -10 192 8 q 147 27 112 62 q 77 97 58 142 q 40 186 40 235 q 40 284 58 328 q 77 373 112 408 q 147 443 192 462 q 236 480 285 480 q 334 480 378 462 q 423 443 458 408 q 458 408 460 406 l 460 470 l 530 470 z"},"j":{"x_min":0,"x_max":234,"ha":234,"o":"m 152 -245 l 82 -245 l 82 470 l 152 470 z m 164 605 q 164 585 150 572 q 137 558 117 558 q 97 558 84 572 q 70 585 70 605 q 70 625 84 638 q 97 652 117 652 q 137 652 150 638 q 164 625 164 605 z"},"i":{"x_min":0,"x_max":234,"ha":234,"o":"m 152 0 l 82 0 l 82 470 l 152 470 z m 164 605 q 164 585 150 572 q 137 558 117 558 q 97 558 84 572 q 70 585 70 605 q 70 625 84 638 q 97 652 117 652 q 137 652 150 638 q 164 625 164 605 z"},"y":{"x_min":0,"x_max":490,"ha":490,"o":"m 10 470 l 90 470 l 254 106 l 402 470 l 480 470 l 176 -245 l 99 -245 l 217 28 z"},"@":{"x_min":0,"x_max":501,"ha":501,"o":"m 315 163 q 347 163 370 186 q 392 208 392 240 q 392 272 370 294 q 347 317 315 317 q 283 317 260 294 q 238 272 238 240 q 238 208 260 186 q 283 163 315 163 z m 405 447 q 441 416 441 370 l 441 123 l 392 123 l 392 140 q 358 114 315 114 q 289 114 266 124 q 242 134 225 151 q 208 168 198 191 q 188 214 188 240 q 188 266 198 289 q 208 312 225 329 q 242 346 266 356 q 289 366 315 366 q 337 366 356 359 q 375 352 392 340 l 392 370 q 392 391 372 410 q 351 430 300 430 q 261 430 226 415 q 191 400 165 374 q 139 349 124 314 q 109 279 109 240 q 109 201 124 166 q 139 131 165 105 q 191 79 226 64 q 261 49 300 49 l 436 49 l 436 0 l 300 0 q 252 0 208 18 q 165 35 130 70 q 95 105 78 148 q 60 192 60 240 q 60 288 78 332 q 96 375 130 409 q 165 444 208 462 q 252 480 300 480 q 364 480 405 447 z"},".":{"x_min":0,"x_max":154,"ha":154,"o":"m 30 37 q 30 57 44 70 q 57 84 77 84 q 97 84 110 70 q 124 57 124 37 q 124 17 110 4 q 97 -10 77 -10 q 57 -10 44 4 q 30 17 30 37 z"},"p":{"x_min":0,"x_max":600,"ha":600,"o":"m 315 60 q 351 60 383 74 q 415 88 438 112 q 462 135 476 167 q 490 199 490 235 q 490 271 476 303 q 462 335 438 358 q 415 382 383 396 q 351 410 315 410 q 279 410 247 396 q 215 382 192 358 q 168 335 154 303 q 140 271 140 235 q 140 199 154 167 q 168 135 192 112 q 215 88 247 74 q 279 60 315 60 z m 315 480 q 365 480 410 460 q 454 441 488 408 q 521 374 540 330 q 560 285 560 235 q 560 185 540 140 q 521 96 488 62 q 454 29 410 10 q 365 -10 315 -10 q 266 -10 220 9 q 174 28 140 64 l 140 -245 l 70 -245 l 70 470 l 140 470 l 140 406 q 174 442 220 461 q 266 480 315 480 z"},"X":{"x_min":0,"x_max":602,"ha":602,"o":"m 259 377 l 13 750 l 97 750 l 301 440 l 506 750 l 589 750 l 343 377 l 592 0 l 508 0 l 301 314 l 94 0 l 10 0 z"},"*":{"x_min":0,"x_max":320,"ha":320,"o":"m 160 608 l 125 547 l 85 570 l 121 631 l 50 631 l 50 676 l 121 676 l 85 737 l 125 760 l 160 699 l 195 760 l 235 737 l 199 676 l 270 676 l 270 631 l 199 631 l 235 570 l 195 547 z"},"Y":{"x_min":0,"x_max":597,"ha":597,"o":"m 333 366 l 333 0 l 263 0 l 263 366 l 10 750 l 94 750 l 298 440 l 503 750 l 587 750 z"},"c":{"x_min":0,"x_max":530,"ha":530,"o":"m 445 164 l 509 136 q 495 103 472 76 q 448 49 418 30 q 389 11 355 0 q 321 -10 285 -10 q 234 -10 190 10 q 145 29 112 62 q 79 95 60 140 q 40 184 40 235 q 40 286 60 330 q 79 375 112 408 q 145 441 190 460 q 234 480 285 480 q 321 480 356 470 q 390 459 420 440 q 449 420 472 392 q 495 365 510 332 l 510 333 l 446 305 q 425 353 381 382 q 337 410 285 410 q 249 410 217 396 q 185 382 162 358 q 138 335 124 303 q 110 271 110 235 q 110 199 124 167 q 138 135 162 112 q 185 88 217 74 q 249 60 285 60 q 337 60 381 88 q 425 117 445 165 z"},"!":{"x_min":0,"x_max":294,"ha":294,"o":"m 194 37 q 194 17 180 4 q 167 -10 147 -10 q 127 -10 114 4 q 100 17 100 37 q 100 57 114 70 q 127 84 147 84 q 167 84 180 70 q 194 57 194 37 z m 182 172 l 112 172 l 112 750 l 182 750 z"},"/":{"x_min":0,"x_max":611,"ha":611,"o":"m 80 -10 l 20 -10 l 531 760 l 591 760 z"},"[":{"x_min":0,"x_max":268,"ha":268,"o":"m 218 690 l 120 690 l 120 60 l 218 60 l 218 -10 l 50 -10 l 50 760 l 218 760 z"},"6":{"x_min":0,"x_max":540,"ha":540,"o":"m 480 200 q 480 156 464 118 q 447 80 418 52 q 390 23 352 6 q 313 -10 270 -10 q 226 -10 188 6 q 150 23 122 52 q 93 80 76 118 q 60 156 60 200 q 60 229 68 255 q 76 281 88 304 l 320 750 l 399 750 l 218 404 q 243 410 270 410 q 313 410 352 394 q 390 377 418 348 q 447 320 464 282 q 480 243 480 200 z m 410 200 q 410 229 399 254 q 388 280 369 299 q 350 318 324 329 q 299 340 270 340 q 241 340 216 329 q 190 318 171 299 q 152 280 141 254 q 130 229 130 200 q 130 171 141 146 q 152 120 171 101 q 190 82 216 71 q 241 60 270 60 q 299 60 324 71 q 350 82 369 101 q 388 120 399 146 q 410 171 410 200 z"},"r":{"x_min":0,"x_max":325,"ha":325,"o":"m 140 408 q 152 430 170 446 q 188 463 211 472 q 234 481 260 480 q 287 480 315 470 l 315 400 q 276 413 244 409 q 212 405 188 386 q 165 367 152 334 q 140 302 140 259 l 140 0 l 70 0 l 70 470 l 140 470 l 140 408 z"},"2":{"x_min":0,"x_max":527,"ha":527,"o":"m 467 0 l 60 0 l 60 35 q 60 124 84 187 q 108 250 144 295 q 180 340 222 372 q 265 405 301 434 q 337 462 361 492 q 385 522 385 562 q 385 588 375 612 q 365 635 348 652 q 330 670 307 680 q 284 690 258 690 q 232 690 208 680 q 185 670 168 652 q 150 635 140 612 q 130 588 130 562 l 60 562 q 60 602 76 638 q 91 674 118 701 q 145 728 181 744 q 217 760 258 760 q 298 760 334 744 q 370 728 397 701 q 424 674 440 638 q 455 602 455 562 q 455 509 432 472 q 410 436 376 406 q 342 375 302 346 q 261 317 225 280 q 189 242 162 192 q 136 142 131 70 l 467 70 z"},"{":{"x_min":0,"x_max":328,"ha":328,"o":"m 121 377 q 142 363 156 343 q 171 323 180 300 q 189 277 192 252 q 196 227 196 203 l 196 17 q 196 -28 216 -44 q 236 -60 278 -60 l 278 -125 l 230 -125 q 204 -125 184 -113 q 164 -101 151 -82 q 138 -63 132 -40 q 125 -16 125 7 l 125 189 q 125 215 124 239 q 123 263 116 283 q 109 303 94 320 q 78 336 50 348 l 50 406 q 78 418 94 434 q 109 450 116 470 q 123 491 124 514 q 125 538 125 565 l 125 746 q 125 769 132 792 q 138 816 151 835 q 164 854 184 866 q 204 878 230 878 l 278 878 l 278 813 q 236 813 216 797 q 196 781 196 736 l 196 551 q 196 527 192 502 q 189 477 180 454 q 171 431 156 411 q 142 391 121 377 z"},"9":{"x_min":0,"x_max":540,"ha":540,"o":"m 60 540 q 60 583 76 622 q 93 660 122 688 q 150 717 188 734 q 226 750 270 750 q 313 750 352 734 q 390 717 418 688 q 447 660 464 622 q 480 583 480 540 q 480 511 472 485 q 464 459 452 436 l 220 -10 l 141 -10 l 322 336 q 296 330 270 330 q 226 330 188 346 q 150 363 122 392 q 93 420 76 458 q 60 496 60 540 z m 130 540 q 130 511 141 486 q 152 460 171 441 q 190 422 216 411 q 241 400 270 400 q 299 400 324 411 q 350 422 369 441 q 388 460 399 486 q 410 511 410 540 q 410 569 399 594 q 388 620 369 639 q 350 658 324 669 q 299 680 270 680 q 241 680 216 669 q 190 658 171 639 q 152 620 141 594 q 130 569 130 540 z"}," ":{"x_min":0,"x_max":280,"ha":280,"o":""},"I":{"x_min":0,"x_max":387,"ha":387,"o":"m 229 680 l 229 70 l 327 70 l 327 0 l 60 0 l 60 70 l 159 70 l 159 680 l 60 680 l 60 750 l 327 750 l 327 680 z"},"H":{"x_min":0,"x_max":693,"ha":693,"o":"m 613 750 l 613 0 l 543 0 l 543 340 l 150 340 l 150 0 l 80 0 l 80 750 l 150 750 l 150 410 l 543 410 l 543 750 z"},"4":{"x_min":0,"x_max":532,"ha":532,"o":"m 391 750 l 141 250 l 332 250 l 332 470 l 402 470 l 402 250 l 472 250 l 472 180 l 402 180 l 402 0 l 332 0 l 332 180 l 30 180 l 313 750 z"},"~":{"x_min":0,"x_max":612,"ha":612,"o":"m 201 323 q 229 323 258 309 q 287 295 314 278 q 341 260 366 246 q 390 232 411 232 q 425 232 438 242 q 450 252 460 266 q 470 280 478 296 q 485 311 490 322 l 552 296 q 543 274 530 250 q 517 226 500 206 q 483 186 460 173 q 438 160 411 160 q 383 160 354 174 q 326 189 298 206 q 271 223 246 238 q 222 252 201 252 q 186 252 174 242 q 161 233 152 219 q 142 205 134 190 q 127 174 122 162 l 60 189 q 69 210 82 234 q 96 258 113 278 q 130 297 152 310 q 174 323 201 323 z"},"D":{"x_min":0,"x_max":685,"ha":685,"o":"m 80 0 l 80 750 l 248 750 q 335 750 406 725 q 478 700 528 652 q 579 604 607 534 q 635 465 635 377 q 635 289 607 219 q 579 149 528 100 q 478 52 406 26 q 335 0 248 0 z m 150 70 l 248 70 q 320 70 379 90 q 438 111 479 150 q 520 189 542 246 q 565 303 565 377 q 565 451 542 508 q 520 564 479 602 q 438 641 379 660 q 320 680 248 680 l 150 680 z"},"^":{"x_min":0,"x_max":572,"ha":572,"o":"m 460 321 l 293 657 l 112 320 l 50 348 l 263 750 l 325 750 l 522 347 z"},"0":{"x_min":0,"x_max":540,"ha":540,"o":"m 410 550 q 410 579 399 604 q 388 630 369 649 q 350 668 324 679 q 299 690 270 690 q 241 690 216 679 q 190 668 171 649 q 152 630 141 604 q 130 579 130 550 l 130 200 q 130 171 141 146 q 152 120 171 101 q 190 82 216 71 q 241 60 270 60 q 299 60 324 71 q 350 82 369 101 q 388 120 399 146 q 410 171 410 200 z m 270 760 q 313 760 352 744 q 390 727 418 698 q 447 670 464 632 q 480 593 480 550 l 480 200 q 480 156 464 118 q 447 80 418 52 q 390 23 352 6 q 313 -10 270 -10 q 226 -10 188 6 q 150 23 122 52 q 93 80 76 118 q 60 156 60 200 l 60 550 q 60 593 76 632 q 93 670 122 698 q 150 727 188 744 q 226 760 270 760 z"},"F":{"x_min":0,"x_max":512,"ha":512,"o":"m 153 680 l 153 470 l 433 470 l 433 400 l 153 400 l 153 0 l 80 0 l 80 750 l 462 750 l 462 680 z"},"`":{"x_min":0,"x_max":312,"ha":312,"o":"m 50 750 l 143 750 l 262 573 l 169 573 z"},"k":{"x_min":0,"x_max":458,"ha":458,"o":"m 347 0 l 140 198 l 140 0 l 70 0 l 70 750 l 140 750 l 140 295 l 320 470 l 421 470 l 191 246 l 448 0 z"},"u":{"x_min":0,"x_max":487,"ha":487,"o":"m 243 -10 q 205 -10 172 4 q 138 19 114 44 q 89 68 74 102 q 60 135 60 173 l 60 470 l 130 470 l 130 173 q 130 150 139 130 q 148 109 164 94 q 179 78 200 69 q 220 60 243 60 q 267 60 288 69 q 308 78 324 94 q 339 109 348 130 q 357 150 357 173 l 357 470 l 427 470 l 427 173 q 427 135 412 102 q 398 68 373 44 q 348 19 314 4 q 281 -10 243 -10 z"},"]":{"x_min":0,"x_max":268,"ha":268,"o":"m 50 760 l 218 760 l 218 -10 l 50 -10 l 50 60 l 148 60 l 148 690 l 50 690 z"},"U":{"x_min":0,"x_max":550,"ha":550,"o":"m 275 -10 q 231 -10 193 6 q 155 23 126 52 q 98 80 82 118 q 65 156 65 200 l 65 750 l 135 750 l 135 200 q 135 171 146 146 q 157 120 176 101 q 195 82 220 71 q 246 60 275 60 q 304 60 330 71 q 355 82 374 101 q 393 120 404 146 q 415 171 415 200 l 415 750 l 485 750 l 485 200 q 485 156 468 118 q 452 80 424 52 q 395 23 356 6 q 318 -10 275 -10 z"},"o":{"x_min":0,"x_max":570,"ha":570,"o":"m 285 -10 q 234 -10 190 10 q 145 29 112 62 q 79 95 60 140 q 40 184 40 235 q 40 286 60 330 q 79 375 112 408 q 145 441 190 460 q 234 480 285 480 q 336 480 380 460 q 425 441 458 408 q 491 375 510 330 q 530 286 530 235 q 530 184 510 140 q 491 95 458 62 q 425 29 380 10 q 336 -10 285 -10 z m 285 410 q 249 410 217 396 q 185 382 162 358 q 138 335 124 303 q 110 271 110 235 q 110 199 124 167 q 138 135 162 112 q 185 88 217 74 q 249 60 285 60 q 321 60 353 74 q 385 88 408 112 q 432 135 446 167 q 460 199 460 235 q 460 271 446 303 q 432 335 408 358 q 385 382 353 396 q 321 410 285 410 z"},"N":{"x_min":0,"x_max":720,"ha":720,"o":"m 96 750 l 570 173 l 570 750 l 640 750 l 640 0 l 622 0 l 150 574 l 150 0 l 80 0 l 80 750 z"},"+":{"x_min":0,"x_max":658,"ha":658,"o":"m 299 101 l 299 350 l 50 350 l 50 410 l 299 410 l 299 659 l 359 659 l 359 410 l 608 410 l 608 350 l 359 350 l 359 101 z"},"G":{"x_min":0,"x_max":800,"ha":800,"o":"m 445 690 q 380 690 322 665 q 265 640 222 598 q 180 555 155 498 q 130 440 130 375 q 130 310 155 252 q 180 195 222 152 q 265 110 322 85 q 380 60 445 60 q 502 60 555 80 q 608 99 651 136 l 651 340 l 436 340 l 436 410 l 720 410 l 720 0 l 651 0 l 651 50 q 556 -10 445 -10 q 365 -10 295 20 q 225 51 173 103 q 121 155 90 225 q 60 295 60 375 q 60 454 90 524 q 121 595 173 647 q 225 699 295 730 q 365 760 445 760 q 514 760 580 736 q 646 712 698 665 l 651 614 q 608 651 555 670 q 502 690 445 690 z"},"q":{"x_min":0,"x_max":600,"ha":600,"o":"m 285 480 q 334 480 380 461 q 426 442 460 406 l 460 470 l 530 470 l 530 -245 l 460 -245 l 460 64 q 426 28 380 9 q 334 -10 285 -10 q 234 -10 190 10 q 145 29 112 62 q 79 95 60 140 q 40 184 40 235 q 40 286 60 330 q 79 375 112 408 q 145 441 190 460 q 234 480 285 480 z m 285 60 q 321 60 353 74 q 385 88 408 112 q 432 135 446 167 q 460 199 460 235 q 460 271 446 303 q 432 335 408 358 q 385 382 353 396 q 321 410 285 410 q 249 410 217 396 q 185 382 162 358 q 138 335 124 303 q 110 271 110 235 q 110 199 124 167 q 138 135 162 112 q 185 88 217 74 q 249 60 285 60 z"},"d":{"x_min":0,"x_max":600,"ha":600,"o":"m 285 -10 q 234 -10 190 10 q 145 29 112 62 q 79 95 60 140 q 40 184 40 235 q 40 286 60 330 q 79 375 112 408 q 145 441 190 460 q 234 480 285 480 q 334 480 380 461 q 426 442 460 406 l 460 750 l 530 750 l 530 0 l 460 0 l 460 64 q 426 28 380 9 q 334 -10 285 -10 z m 285 410 q 249 410 217 396 q 185 382 162 358 q 138 335 124 303 q 110 271 110 235 q 110 199 124 167 q 138 135 162 112 q 185 88 217 74 q 249 60 285 60 q 321 60 353 74 q 385 88 408 112 q 432 135 446 167 q 460 199 460 235 q 460 271 446 303 q 432 335 408 358 q 385 382 353 396 q 321 410 285 410 z"},"1":{"x_min":0,"x_max":335,"ha":335,"o":"m 314 0 l 60 0 l 60 69 l 155 69 l 155 680 l 60 680 l 60 750 l 225 750 l 225 69 l 314 69 z"},"5":{"x_min":0,"x_max":516,"ha":516,"o":"m 60 342 l 60 750 l 421 750 l 421 680 l 131 680 l 131 454 q 157 476 190 488 q 222 500 258 500 q 299 500 335 484 q 371 469 398 442 q 425 415 440 379 q 456 343 456 302 l 456 188 q 456 147 440 111 q 425 75 398 48 q 371 21 335 6 q 299 -10 258 -10 q 217 -10 181 6 q 145 21 118 48 q 91 75 76 111 q 60 147 60 188 l 130 188 q 130 161 140 138 q 150 115 168 98 q 185 80 208 70 q 231 60 258 60 q 285 60 308 70 q 331 80 348 98 q 366 115 376 138 q 386 161 386 188 l 386 302 q 386 329 376 352 q 366 375 348 392 q 331 410 308 420 q 285 430 258 430 q 215 430 182 405 q 149 380 136 342 z"}}}
